<?xml version="1.0" encoding="UTF-8" standalone="no"?>
<svg
   version="1.0"
   width="450.000000pt"
   height="450.000000pt"
   viewBox="0 0 450.000000 450.000000"
   preserveAspectRatio="xMidYMid meet"
   id="svg14"
   xmlns="http://www.w3.org/2000/svg"
   xmlns:svg="http://www.w3.org/2000/svg">
  <defs
     id="defs14" />
  <g
     transform="matrix(0.0650579,0,0,-0.06505797,-69.126878,502.78023)"
     fill="#9146ff"
     stroke="none"
     id="g14">
    <path
       d="M 1590,7630 C 1183,7489 1053,6125 1377,5402 l 40,-89 -60,-161 C 1030,4266 1136,3298 1645,2528 l 107,-162 -46,-68 c -424,-618 179,-1330 845,-998 98.6937,46.6319 211.8089,122.7158 276,166 14.2503,8.8993 14,25 100,-27 235,-140 605,-290 823,-334 78,-16 80,-18 90,-116 l 10,-99 137,-6 c 130,-6 141,-3 220,62 l 83,69 340,11 c 547,17 1117,176 1469,408 56.565,34.9106 76.855,57.8356 105.8058,56.7993 C 6225.4572,1490.06 6236,1472 6292,1425 c 328,-274 784,-273 1019,1 197,230 204,581 18,875 l -51,81 c 69.0093,84.8486 97.5504,124.1487 160,215 459,645 565,1800 237,2590 l -49,116 66,194 c 117,344 138,487 138,943 0,713 -132,1120 -386,1197 -232,69 -1025,-121 -1500,-358 l -226,-114 -158,69 c -634,274 -1455,269 -2118,-11 l -132,-56 -140,76 c -465,255 -1343,470 -1580,387 z m 290,-220 c 419,-46 937,-219 1324,-442 l 95,-54 155,71 c 690,314 1653,294 2216,-46 59,-36 61,-35 140,14 447,276 1436,560 1616,464 138,-74 233,-846 166,-1347 -45,-339 -135.3041,-738.5623 -191,-585 -22.4216,53.4865 -59.8769,108.2396 -39,198 150,282 141,1450 -13,1578 -86,71 -583,-179 -984,-497 -197,-156 -199,-115 10,-266 C 7522,5668 7945,4206 7390,2989 7269,2723 7062.9598,2473.4375 7039.3738,2448.6563 7028.6551,2437.5156 7009.9687,2426.6719 7022,2407 c 272,-301 295,-740 46,-850 -252,-111 -600,-15 -761,212 l -42,58 -140,-92 c -411,-271 -860,-425 -1318,-452 -228,-13 -234,-11 -171,62 23,27 61,35 161,35 h 130 l 316,325 317,325 v 601 600 l -119,105 -118,104 h -794 -793 l -168,-145 -168,-145 -3,-470 c -1,-258 -8,-635 -15,-836 l -12,-365 -177,90 c -97,50 -233,131 -302,180 l -125,89 -62,-95 c -195,-301 -806,-313 -886,-17 -54,199 19,470 176,654 37.7417,34.798 18.2534,47.8656 11.4835,58.0901 C 1987.0113,2457.5503 1980,2446 1838,2659 c -839,1253 -387,3107 962,3943 93,58 -667,562 -994,659 -108,32 -131,14 -172,-136 -111,-409 -95,-1035 39,-1473 11.0774,-42.8696 21.8017,-26.7259 -22,-137 -36,-86 -56.4687,-85.8125 -88.4687,-30.1562 -15.625,25.1875 -19.8248,31.3841 -36.8438,56.2499 C 1357.5625,5783.0937 1377,6563 1466,7010 c 78,393 104,438 244,420 33,-5 110,-13 170,-20 z m 78,-419 c 155,-78 534,-327 587,-385 33,-37 29,-43 -135,-173 -181,-144 -403,-383 -523,-563 -84,-127 -81,-128 -117,12 -77,291 -82,842 -9,1103 25,92 27,92 197,6 z m 5311,24 c 5,-25 21,-99 34,-165 72,-348 -14,-1218 -104,-1048 -85,162 -406,506 -626,673 l -131,99 134,101 c 392,295 673,433 693,340 z M 5340,2662 v -537 l -251,-243 -251,-242 -124,-1 h -124 l -245,-231 -245,-232 v 232 232 h -240 -240 v 714 714 l 64,66 64,66 h 796 796 z"
       id="path1" />
    <path
       d="m 2640,5842 c -410,-133 -677,-424 -694,-758 l -8,-154 48,113 c 416,979 1714,908 1972,-107 l 38,-146 14,117 c 76,602 -720,1146 -1370,935 z"
       id="path2" />
    <path
       d="m 5819,5842 c -467,-149 -782,-560 -728,-949 l 14,-101 43,151 c 291,1007 1567,1086 1964,121 l 47,-114 1,130 c 1,522 -753,951 -1341,762 z"
       id="path3" />
    <path
       d="m 2820,5546 c -90,-15 -229,-65 -289,-105 l -59,-39 59,-23 c 32,-13 142,-25 243,-26 262,-4 366,-89 382,-312 32,-442 -619,-528 -690,-91 -9,58 -25,77 -79,100 -37,15 -77,51 -90,79 -33,72 -48,65 -104,-54 -362,-766 474,-1530 1206,-1101 794,465 330,1724 -579,1572 z"
       id="path4" />
    <path
       d="m 6010,5547 c -95,-21 -239,-72 -284,-102 l -49,-32 46,-26 c 27,-15 115,-26 209,-26 335,-2 513,-225 390,-491 -142,-309 -613,-258 -657,72 -9,67 -21,84 -77,108 -37,15 -84,55 -104,89 l -38,61 -51,-95 c -463,-861 697,-1690 1382,-987 554,569 4,1595 -767,1429 z"
       id="path5" />
    <path
       d="m 4428,4513 c -69,-59 -73,-153 -11,-219 85,-92 35,-234 -82,-234 -65,0 -115,66 -115,150 0,106 -96,152 -141,69 -114,-214 236,-484 412,-318 l 47,44 63,-52 c 99,-84 274,-55 347,57 51,78 79,219 53,268 -45,84 -141,38 -141,-68 0,-185 -189,-209 -240,-30 -16,56 -12,69 34,109 108,92 32,271 -114,271 -32,0 -82,-21 -112,-47 z m 172,-43 c 14,-16 22,-31 17,-32 -101,-20 -190,9 -135,44 42,26 90,21 118,-12 z"
       id="path6" />
    <path
       d="m 1637,4021 c -91,-75 -34,-107 233,-136 250,-26 290,-18 290,57 0,51 -47,71 -227,96 -212,30 -241,28 -296,-17 z"
       id="path7" />
    <path
       d="m 7115,4032 c -152,-27 -181,-47 -172,-115 8,-53 30,-54 347,-23 149,15 160,19 167,65 14,99 -81,120 -342,73 z"
       id="path8" />
    <path
       d="m 1704,3796 c -36,-36 -29,-110 15,-141 38,-27 38,-27 0,-51 -126,-79 -19,-156 172,-125 83,13 263,31 398,39 253,14 311,33 311,102 0,74 -149,118 -580,171 -284,34 -287,34 -316,5 z"
       id="path9" />
    <path
       d="m 7040,3791 c -445,-66 -540,-96 -540,-173 0,-76 55,-98 243,-98 77,0 238,-14 359,-32 173,-25 225,-27 248,-8 42,35 37,95 -9,124 -38,24 -38,24 0,51 44,31 51,105 15,141 -29,29 -91,28 -316,-5 z"
       id="path10" />
    <path
       d="m 2180,3390 c -328,-91 -420,-137 -420,-211 0,-72 55,-90 157,-50 51,20 205,69 341,109 247,72 300,105 276,169 -18,47 -146,41 -354,-17 z"
       id="path11" />
    <path
       d="m 6548,3411 c -30,-76 0,-100 192,-152 105,-28 255,-76 334,-106 187,-72 305,-15 196,94 -102,102 -694,237 -722,164 z"
       id="path12" />
    <path
       d="m 4200,2480 v -380 h 130 130 v 380 380 h -130 -130 z"
       id="path13" />
    <path
       d="m 4740,2479 v -381 l 125,6 125,6 5,375 6,375 h -131 -130 z"
       id="path14" />
  </g>
</svg>
