<?xml version="1.0" standalone="no"?>
<!DOCTYPE svg PUBLIC "-//W3C//DTD SVG 20010904//EN"
 "http://www.w3.org/TR/2001/REC-SVG-20010904/DTD/svg10.dtd">
<svg version="1.0" xmlns="http://www.w3.org/2000/svg"
 width="700.000000pt" height="700.000000pt" viewBox="0 0 700.000000 700.000000"
 preserveAspectRatio="xMidYMid meet">
<metadata>
Created by potrace 1.14, written by Peter Selinger 2001-2017
</metadata>
<g transform="translate(0.000000,700.000000) scale(0.100000,-0.100000)"
fill="#000000" stroke="none">
<path d="M6317 6924 c-1 -1 -42 -5 -92 -8 -102 -7 -122 -10 -260 -37 -55 -11
-111 -22 -125 -25 -76 -15 -314 -82 -445 -125 -184 -62 -333 -124 -532 -223
l-153 -75 -47 20 c-27 11 -61 27 -78 34 -186 85 -471 166 -665 190 -30 4 -66
9 -80 10 -176 24 -510 23 -685 -1 -44 -6 -243 -40 -289 -49 -132 -27 -350 -99
-520 -173 l-69 -30 -35 20 c-316 177 -726 326 -1135 413 -116 24 -138 27 -282
45 -123 14 -253 7 -310 -19 -154 -68 -281 -332 -340 -701 -9 -58 -18 -116 -21
-130 -9 -58 -18 -246 -18 -390 0 -234 20 -450 58 -625 32 -149 74 -282 125
-400 l39 -89 -36 -96 c-39 -107 -100 -294 -106 -325 -2 -11 -13 -56 -24 -100
-59 -231 -80 -435 -77 -725 4 -255 6 -288 36 -460 73 -420 217 -775 467 -1155
l79 -120 -23 -35 c-109 -164 -154 -285 -161 -440 -4 -85 -1 -121 15 -187 57
-225 211 -394 428 -470 69 -24 95 -27 204 -27 103 -1 138 3 197 22 109 34 190
73 323 156 66 42 125 76 132 76 6 0 54 -24 107 -53 245 -136 524 -250 750
-307 105 -27 129 -38 132 -65 0 -5 2 -17 4 -26 1 -8 6 -42 10 -75 3 -32 8 -60
10 -62 1 -2 53 -5 114 -8 111 -5 178 5 203 29 7 7 39 33 70 59 l57 46 108 2
c59 1 140 3 178 5 39 2 120 7 182 10 62 3 122 8 134 10 12 2 47 7 78 11 48 5
185 29 286 49 288 58 637 191 836 320 130 84 134 84 190 33 165 -149 364 -229
574 -231 173 -1 304 43 424 143 95 79 181 228 206 355 35 185 -14 422 -124
592 -45 70 -53 90 -40 98 11 7 62 75 149 199 107 154 206 351 271 544 30 87
93 326 104 392 3 19 8 42 10 50 2 8 6 33 9 55 3 22 10 76 16 120 38 282 27
719 -24 970 -41 202 -81 336 -154 516 l-39 94 54 160 c56 168 107 349 118 425
4 25 9 54 11 65 31 165 24 843 -11 1046 -3 15 -7 47 -10 70 -3 24 -15 80 -26
124 -80 318 -198 463 -390 484 -38 4 -70 6 -72 5z m90 -230 c36 -5 75 -46 99
-103 104 -246 154 -884 100 -1281 -31 -230 -85 -475 -124 -564 -28 -62 -47
-59 -79 12 -33 71 -41 148 -20 188 15 29 40 118 51 179 3 17 8 39 10 50 2 11
7 52 11 90 4 39 9 79 11 90 7 37 17 259 17 380 1 330 -36 645 -88 745 -26 51
-50 63 -105 56 -202 -27 -603 -256 -1003 -574 -85 -67 -85 -80 3 -144 367
-268 629 -529 842 -838 216 -314 379 -697 457 -1075 41 -196 55 -346 56 -565
0 -253 -23 -441 -81 -675 -26 -102 -100 -332 -114 -350 -4 -5 -11 -21 -15 -35
-30 -103 -217 -413 -344 -570 -33 -41 -61 -79 -61 -83 0 -5 15 -27 33 -50 75
-93 155 -256 174 -353 15 -74 9 -245 -10 -301 -24 -68 -85 -136 -150 -166
-241 -113 -595 -17 -765 208 l-48 63 -75 -49 c-231 -154 -427 -257 -643 -338
-134 -51 -354 -112 -456 -127 -30 -4 -57 -8 -60 -9 -87 -21 -417 -41 -439 -27
-11 8 -10 14 4 36 31 47 67 58 198 60 l120 3 125 129 c69 71 212 218 318 327
l194 198 -1 612 0 612 -65 55 c-36 30 -89 76 -117 102 l-52 48 -806 0 c-753 0
-806 -1 -825 -17 -10 -10 -50 -45 -89 -78 -38 -33 -72 -62 -75 -65 -5 -5 -142
-122 -150 -128 -2 -1 -5 -134 -6 -295 -2 -322 -13 -979 -19 -1097 -2 -41 -5
-126 -7 -187 -1 -62 -4 -113 -5 -113 -2 0 -52 24 -111 54 -149 75 -269 145
-393 232 l-107 73 -41 -63 c-74 -116 -166 -187 -293 -230 -77 -26 -98 -29
-213 -32 -220 -6 -360 66 -408 210 -25 73 -18 257 12 356 29 94 76 187 133
265 24 33 47 65 50 71 4 6 -9 28 -28 50 -42 48 -165 224 -218 314 -116 194
-243 505 -281 684 -2 12 -11 53 -19 91 -54 250 -69 482 -52 770 4 66 9 129 11
140 3 11 7 38 10 60 71 510 274 1000 582 1408 84 110 100 130 183 220 165 179
305 300 512 444 l108 74 -14 27 c-67 127 -688 522 -969 617 -94 31 -127 32
-154 3 -27 -30 -64 -138 -79 -233 -3 -22 -7 -42 -9 -45 -2 -3 -7 -33 -10 -65
-4 -33 -9 -69 -11 -79 -23 -121 -22 -572 1 -731 27 -188 42 -270 71 -383 l34
-134 -31 -73 c-42 -101 -57 -104 -111 -20 -84 133 -115 250 -138 515 -8 93 -5
505 4 605 8 81 16 156 26 220 5 33 11 77 14 98 28 185 89 415 124 462 33 46
94 53 247 30 11 -2 47 -6 80 -10 86 -9 206 -31 310 -55 50 -11 100 -23 112
-25 72 -16 310 -95 443 -148 140 -55 334 -148 496 -237 l60 -33 104 48 c236
108 454 174 690 210 25 4 53 9 62 10 17 4 122 15 188 21 146 13 447 3 625 -22
257 -35 591 -148 740 -250 32 -23 64 -16 144 30 197 113 432 214 711 307 178
58 460 133 547 145 26 3 50 8 54 9 3 2 39 7 80 11 40 3 76 8 78 10 3 3 58 -2
118 -12z m-5525 -429 c193 -97 534 -319 611 -397 22 -23 26 -32 17 -47 -5 -11
-60 -61 -122 -112 -118 -97 -306 -280 -399 -388 -30 -35 -90 -113 -135 -175
-44 -61 -87 -112 -96 -114 -11 -2 -19 15 -31 60 -22 83 -34 142 -43 203 -3 28
-8 59 -10 70 -17 90 -23 449 -10 615 9 117 42 287 63 318 19 30 38 26 155 -33z
m5389 28 c8 -8 41 -156 54 -243 11 -72 15 -155 14 -310 0 -140 -1 -172 -13
-326 -15 -209 -57 -384 -91 -384 -7 0 -30 28 -51 62 -59 96 -181 238 -343 398
-168 167 -186 183 -301 269 -47 36 -87 66 -89 67 -6 5 21 28 119 101 229 168
354 250 481 314 126 64 193 79 220 52z m-1941 -4418 l0 -542 -112 -110 c-62
-61 -140 -137 -173 -168 -33 -31 -96 -93 -141 -137 l-81 -79 -129 -2 -128 -1
-42 -40 c-23 -23 -97 -93 -164 -156 -67 -63 -139 -131 -159 -150 -20 -19 -57
-54 -82 -78 l-45 -42 1 222 c0 123 -1 229 -3 236 -3 9 -35 12 -121 11 -64 0
-171 0 -238 0 l-123 1 0 723 0 722 65 66 65 66 805 0 805 0 0 -542z"/>
<path d="M1770 5130 c-94 -15 -126 -23 -209 -52 -302 -106 -532 -308 -619
-541 -32 -86 -43 -140 -48 -252 -5 -111 -8 -112 54 25 193 428 580 685 1012
674 203 -5 367 -57 534 -168 214 -142 357 -356 439 -656 l35 -125 8 50 c14 82
9 234 -9 305 -91 343 -433 636 -849 726 -79 17 -276 25 -348 14z"/>
<path d="M5028 5135 c-2 -2 -30 -6 -63 -10 -85 -9 -235 -60 -339 -113 -209
-107 -375 -270 -470 -458 -58 -117 -80 -205 -80 -324 -1 -91 7 -177 18 -187 1
-2 13 36 26 84 105 402 357 693 705 811 53 18 83 25 195 47 53 10 228 5 305
-9 363 -67 638 -299 797 -675 22 -53 43 -98 45 -101 11 -12 -1 208 -14 256
-76 293 -373 547 -751 644 -42 11 -93 22 -112 25 -36 7 -257 15 -262 10z"/>
<path d="M1877 4804 c-1 -1 -29 -5 -62 -8 -113 -13 -299 -81 -364 -134 l-24
-19 49 -16 c54 -18 109 -25 260 -32 156 -7 232 -29 290 -83 83 -76 115 -239
75 -372 -78 -256 -444 -326 -610 -117 -31 40 -49 82 -75 178 -14 50 -20 58
-63 82 -56 30 -87 59 -113 104 -25 41 -40 35 -74 -27 -179 -330 -133 -724 117
-995 171 -186 390 -286 627 -287 130 0 204 13 319 58 124 49 217 109 312 203
151 150 228 334 232 553 1 110 -6 168 -33 266 -94 338 -373 596 -691 637 -53
7 -167 13 -172 9z"/>
<path d="M5068 4805 c-2 -2 -23 -6 -48 -10 -24 -4 -53 -12 -65 -17 -11 -6 -21
-11 -23 -10 -11 9 -174 -55 -230 -90 l-35 -21 34 -17 c44 -22 80 -28 209 -35
194 -11 295 -48 376 -138 78 -87 94 -201 48 -327 -67 -180 -258 -278 -438
-226 -134 39 -209 122 -237 261 -15 72 -27 91 -70 110 -48 22 -99 69 -129 118
l-23 38 -24 -43 c-134 -235 -168 -462 -102 -683 88 -293 342 -528 659 -609 82
-21 113 -24 225 -22 185 5 297 42 452 148 143 99 262 251 316 404 173 487
-159 1073 -660 1164 -54 9 -227 13 -235 5z"/>
<path d="M3484 3786 c-79 -26 -122 -74 -130 -143 -5 -44 -2 -53 38 -114 43
-65 47 -81 39 -156 -3 -26 -54 -73 -87 -79 -87 -16 -138 34 -149 149 -7 61
-26 94 -61 103 -89 22 -135 -118 -76 -232 49 -94 174 -174 274 -176 60 -1 106
18 155 65 l32 30 37 -33 c60 -52 118 -73 184 -67 95 8 169 57 210 137 22 44
47 143 44 178 -1 12 -2 30 -3 40 -2 33 -40 63 -73 60 -42 -4 -68 -42 -74 -109
-8 -71 -33 -120 -73 -141 -64 -32 -139 16 -168 109 -16 51 -16 54 3 77 10 14
32 41 48 60 87 109 -37 287 -170 242z m92 -83 l29 -27 -25 -6 c-35 -10 -111
-2 -128 12 -12 10 -11 15 8 30 33 27 82 23 116 -9z"/>
<path d="M627 3275 c-36 -15 -87 -62 -87 -81 0 -33 101 -65 250 -79 36 -4 76
-9 90 -11 67 -11 181 -5 205 10 32 21 33 67 4 95 -21 19 -107 43 -199 56 -25
3 -63 8 -85 11 -80 11 -151 11 -178 -1z"/>
<path d="M6287 3284 c-1 -1 -29 -6 -61 -9 -33 -4 -64 -8 -70 -9 -148 -29 -163
-34 -186 -59 -24 -26 -26 -70 -3 -92 15 -15 32 -17 144 -11 70 4 137 9 148 11
11 2 51 7 88 10 97 10 117 21 121 69 5 63 -30 86 -140 90 -21 1 -40 1 -41 0z"/>
<path d="M657 3028 c-22 -16 -37 -76 -27 -103 4 -11 20 -32 35 -48 l28 -27
-42 -36 c-48 -42 -51 -66 -9 -97 22 -16 43 -20 105 -21 43 0 103 4 133 8 30 5
66 10 80 11 59 6 179 17 225 20 296 20 346 31 365 81 11 27 -1 60 -29 81 -16
12 -88 39 -129 48 -12 3 -32 8 -44 11 -40 10 -321 54 -383 60 -33 3 -66 7 -73
10 -7 2 -59 7 -115 10 -78 4 -106 3 -120 -8z"/>
<path d="M6140 3029 c-25 -4 -65 -10 -90 -13 -97 -14 -347 -58 -390 -68 -130
-32 -175 -76 -150 -144 14 -36 71 -56 170 -60 115 -4 276 -14 297 -18 10 -2
47 -7 83 -11 36 -5 74 -10 85 -11 11 -2 61 -6 111 -10 86 -6 92 -5 112 17 32
33 28 75 -9 110 l-31 29 31 35 c35 40 41 95 15 130 -13 17 -27 20 -102 21 -48
0 -107 -3 -132 -7z"/>
<path d="M1252 2638 c-121 -24 -370 -101 -450 -139 -34 -17 -69 -41 -78 -54
-20 -30 -21 -82 -2 -101 27 -27 81 -18 278 45 484 155 490 157 490 215 0 27
-5 35 -27 44 -40 15 -104 12 -211 -10z"/>
<path d="M5564 2643 c-16 -11 -26 -50 -20 -71 10 -30 71 -57 223 -101 78 -23
188 -57 245 -77 130 -45 163 -53 215 -54 82 0 113 28 87 80 -28 58 -112 104
-279 155 -181 56 -435 92 -471 68z"/>
<path d="M3179 2065 c-1 -5 -2 -178 -3 -382 -1 -244 2 -374 9 -376 5 -2 64 -3
130 -3 l120 1 2 383 c1 284 -2 382 -10 383 -77 6 -247 2 -248 -6z"/>
<path d="M3730 2070 c-5 -3 -9 -177 -8 -386 l0 -382 106 5 c59 2 116 6 127 8
19 4 20 14 23 262 2 142 5 311 6 376 2 77 -1 117 -8 118 -40 4 -239 3 -246 -1z"/>
</g>
</svg>
